<?xml version="1.0" encoding="UTF-8"?>
<svg xmlns="http://www.w3.org/2000/svg" id="Sales" viewBox="0 0 64 64" width="512" height="512"><path d="M44.48,41.24l-1.51-.35a.929.929,0,0,0-.05-.29,1.049,1.049,0,0,0-.68-.57l-4-1a1.008,1.008,0,0,0-.62.05,3.916,3.916,0,0,1-.76-.91,16.76,16.76,0,0,0,9.99-10.18c.05,0,.1.01.15.01a5,5,0,0,0,2.75-9.18,2.972,2.972,0,0,0,.2-2.63L49,13.81V11a9.014,9.014,0,0,0-9-9H24a9.014,9.014,0,0,0-9,9v2.81l-.95,2.38a2.972,2.972,0,0,0,.2,2.63A5,5,0,0,0,17,28c.05,0,.1-.01.15-.01a16.76,16.76,0,0,0,9.99,10.18,3.916,3.916,0,0,1-.76.91,1.008,1.008,0,0,0-.62-.05l-4,1a1.049,1.049,0,0,0-.68.57.929.929,0,0,0-.05.29l-1.51.35A10.96,10.96,0,0,0,11,51.96V61a1,1,0,0,0,1,1H52a1,1,0,0,0,1-1V51.96A10.96,10.96,0,0,0,44.48,41.24Zm-6.17-.13,2.18.54L36.7,48.48l-3.2-2.56ZM50,23a2.992,2.992,0,0,1-2.55,2.95A18.574,18.574,0,0,0,48,21.5c0-.45-.02-.89-.05-1.32h.02A2.965,2.965,0,0,1,50,23ZM17,11a7.008,7.008,0,0,1,7-7H40a7.008,7.008,0,0,1,7,7v2H17ZM14,23a2.965,2.965,0,0,1,2.03-2.82h.02c-.03.43-.05.87-.05,1.32a18.574,18.574,0,0,0,.55,4.45A2.992,2.992,0,0,1,14,23Zm2.72-4.7a1.015,1.015,0,0,1-.82-1.37L16.68,15H47.32l.78,1.93a1.015,1.015,0,0,1-.82,1.37l-1.26.14a127.61,127.61,0,0,1-28.04,0ZM18,21.5q0-.54.03-1.05A130.354,130.354,0,0,0,32,21.21a130.354,130.354,0,0,0,13.97-.76q.03.51.03,1.05C46,30.05,39.72,37,32,37S18,30.05,18,21.5Zm7.69,19.61,4.81,4.81-3.2,2.56-3.79-6.83ZM31,60H13V51.96a8.969,8.969,0,0,1,6.98-8.78l1.85-.43,4.3,7.74a1.014,1.014,0,0,0,.68.49A1.225,1.225,0,0,0,27,51a.977.977,0,0,0,.62-.22L31,48.08ZM27.85,40.44a6.509,6.509,0,0,0,1.29-1.74,13.783,13.783,0,0,0,5.72,0,6.509,6.509,0,0,0,1.29,1.74L32,44.59ZM44,60H38V55h6Zm7,0H46V54a1,1,0,0,0-1-1H37a1,1,0,0,0-1,1v6H33V48.08l3.38,2.7A.977.977,0,0,0,37,51a1.225,1.225,0,0,0,.19-.02,1.014,1.014,0,0,0,.68-.49l4.3-7.74,1.85.43A8.969,8.969,0,0,1,51,51.96Z"/><path d="M25,23a1,1,0,0,0-1,1v2a1,1,0,0,0,2,0V24A1,1,0,0,0,25,23Z"/><path d="M39,27a1,1,0,0,0,1-1V24a1,1,0,0,0-2,0v2A1,1,0,0,0,39,27Z"/><path d="M35.4,33.6A1,1,0,0,0,34.6,32a.944.944,0,0,0-.738.33A2.461,2.461,0,0,1,32,33a2.461,2.461,0,0,1-1.858-.67A.944.944,0,0,0,29.4,32a1,1,0,0,0-.807,1.6A4.395,4.395,0,0,0,32,35,4.395,4.395,0,0,0,35.4,33.6Z"/></svg>
