<svg id="outline" height="512" viewBox="0 0 512 512" width="512" xmlns="http://www.w3.org/2000/svg"><path d="m40.41016 77.46973-24 72a8.00022 8.00022 0 0 0 7.58984 10.53027h16v272a8.00039 8.00039 0 0 0 8 8h416a8.00039 8.00039 0 0 0 8-8v-272h16a8.00022 8.00022 0 0 0 7.58984-10.53027l-24-72a8.00026 8.00026 0 0 0 -7.58984-5.46973h-416a8.00026 8.00026 0 0 0 -7.58984 5.46973zm15.58984 82.53027h232a8.00026 8.00026 0 0 0 7.58984-5.46973l8.41016-25.23047v294.7002h-248zm400 264h-136v-294.7002l8.41016 25.23047a8.00026 8.00026 0 0 0 7.58984 5.46973h120zm2.23438-336 18.666 56h-135.13476l-18.666-56zm-157.334 0-18.666 56h-247.13477l18.666-56z"/><path d="m184 336h32v16h-32z"/><path d="m136 336h32v16h-32z"/><path d="m208 368h32v16h-32z"/><path d="m104 368h88v16h-88z"/><path d="m123.2002 278.40039 32 24a8.00115 8.00115 0 0 0 4.7998 1.59961h32a8.00115 8.00115 0 0 0 4.7998-1.59961l32-24a8.00229 8.00229 0 0 0 3.2002-6.40039v-40a7.99943 7.99943 0 0 0 -3.5625-6.65625l-48-32a8.00131 8.00131 0 0 0 -8.875 0l-48 32a7.99943 7.99943 0 0 0 -3.5625 6.65625v40a8.00229 8.00229 0 0 0 3.2002 6.40039zm66.1328 9.59961h-26.666l-26.667-20v-21.052l35.5625 23.70825a7.99891 7.99891 0 0 0 8.875 0l35.5625-23.70825v21.052zm-13.333-78.38477 33.57812 22.38477-33.57812 22.38477-33.57812-22.38477z"/></svg>